<svg width="512" height="512" viewBox="0 0 512 512" fill="none" xmlns="http://www.w3.org/2000/svg">
  <rect width="512" height="512" rx="120" fill="#0F172A"/>
  
  <g filter="url(#filter0_d_ribbon)">
    <path fill-rule="evenodd" clip-rule="evenodd" d="M390.68 125.1C360.42 94.5 318.2 76 270 76C168.37 76 86 156.35 86 256C86 355.65 168.37 436 270 436C318.2 436 360.42 417.5 390.68 386.9L338.5 335.5C320.8 353.5 296.6 364 270 364C208.13 364 158 315.65 158 256C158 196.35 208.13 148 270 148C296.6 148 320.8 158.5 338.5 176.5L390.68 125.1Z" fill="url(#paint0_linear_ribbon)"/>
    <path d="M338.5 176.5L390.68 125.1C360.42 94.5 318.2 76 270 76V148C296.6 148 320.8 158.5 338.5 176.5Z" fill="black" fill-opacity="0.2"/>
  </g>
  
  <defs>
    <linearGradient id="paint0_linear_ribbon" x1="86" y1="76" x2="390.68" y2="436" gradientUnits="userSpaceOnUse">
      <stop stop-color="#E50914"/>
      <stop offset="1" stop-color="#B20710"/>
    </linearGradient>
    <filter id="filter0_d_ribbon" x="82" y="76" width="312.68" height="368" filterUnits="userSpaceOnUse" color-interpolation-filters="sRGB">
      <feFlood flood-opacity="0" result="BackgroundImageFix"/>
      <feColorMatrix in="SourceAlpha" type="matrix" values="0 0 0 0 0 0 0 0 0 0 0 0 0 0 0 0 0 0 127 0" result="hardAlpha"/>
      <feOffset dy="4"/>
      <feGaussianBlur stdDeviation="2"/>
      <feComposite in2="hardAlpha" operator="out"/>
      <feColorMatrix type="matrix" values="0 0 0 0 0 0 0 0 0 0 0 0 0 0 0 0 0 0 0.25 0"/>
      <feBlend mode="normal" in2="BackgroundImageFix" result="effect1_dropShadow"/>
      <feBlend mode="normal" in="SourceGraphic" in2="effect1_dropShadow" result="shape"/>
    </filter>
  </defs>
</svg>